Coordinates
version=1
nRows=10
nColumns=40
inDegrees=yes

Units are S.I. units (second, meters, Newtons, ...)
Angles are in degrees.

endheader
time	pelvis_tilt	pelvis_list	pelvis_rotation	pelvis_tx	pelvis_ty	pelvis_tz	hip_flexion_r	hip_adduction_r	hip_rotation_r	knee_angle_r	knee_angle_r_beta	ankle_angle_r	subtalar_angle_r	mtp_angle_r	hip_flexion_l	hip_adduction_l	hip_rotation_l	knee_angle_l	knee_angle_l_beta	ankle_angle_l	subtalar_angle_l	mtp_angle_l	lumbar_extension	lumbar_bending	lumbar_rotation	arm_flex_r	arm_add_r	arm_rot_r	elbow_flex_r	pro_sup_r	wrist_flex_r	wrist_dev_r	arm_flex_l	arm_add_l	arm_rot_l	elbow_flex_l	pro_sup_l	wrist_flex_l	wrist_dev_l
     20.27500000	     -3.00148104	     -6.16198965	      7.21065103	      1.06588064	      0.92505665	      0.47333451	     -0.03722825	      4.51051295	    -18.87677236	      9.01910777	      9.01910777	     14.24304440	      5.61311967	     -6.53812985	     29.73334342	     -8.93628351	     -1.97896359	     20.19361779	     20.19361779	      1.52645539	     -8.28134599	      6.40380473	     -9.32889063	      7.23800218	      3.21943275	     43.87606489	    -18.19172469	     -7.47774436	     75.71423798	     44.95039749	      0.00000000	      0.00000000	    -10.68316049	     -6.39202105	      4.11987969	     26.47763421	     44.70787255	      0.00000000	      0.00000000
     20.28807143	     -2.96676889	     -6.23359763	      6.97611930	      1.06752769	      0.92398244	      0.47139943	     -0.50892923	      4.46106632	    -18.68161619	      9.15348357	      9.15348357	     14.73774304	      5.77658115	     -6.48640301	     29.26231411	     -8.97409407	     -1.80749637	     20.90180682	     20.90180682	      1.48128681	     -9.05335114	      6.15863475	     -9.18115337	      7.22170960	      3.26541071	     43.62449511	    -18.11393081	     -7.63679195	     75.75648271	     44.95640275	      0.00000000	      0.00000000	    -10.83748086	     -6.47343128	      4.16420094	     26.71836862	     44.70125289	      0.00000000	      0.00000000
     20.30114286	     -3.03762931	     -6.24011566	      6.74025318	      1.06905046	      0.92289883	      0.46921896	     -0.69206992	      4.23874550	    -18.53709698	      9.68112446	      9.68112446	     15.69209628	      6.02483655	     -5.28611363	     28.78875645	     -8.79490086	     -1.24256516	     21.28818220	     21.28818220	      1.04748092	    -10.53479055	      5.13731834	     -8.96739737	      7.11702219	      3.37807302	     43.03369604	    -17.95865606	     -8.49863770	     76.09257248	     44.99064398	      0.00000000	      0.00000000	    -11.21846010	     -6.74633847	      4.50667846	     28.00327952	     44.66665634	      0.00000000	      0.00000000
     20.31421429	     -2.99277466	     -6.17942577	      6.53123932	      1.07058206	      0.92212642	      0.46694371	     -1.12296939	      4.00888438	    -18.28291854	      9.91360571	      9.91360571	     16.08430497	      6.00711415	     -5.27303103	     28.37324892	     -8.68292599	     -1.16471789	     21.95445865	     21.95445865	      1.41439046	    -10.93924546	      4.80911168	     -8.88659452	      6.94697125	      3.28103890	     42.51673356	    -17.83792900	     -8.47949466	     75.94626808	     44.99453153	      0.00000000	      0.00000000	    -11.12200094	     -6.84570542	      4.54419425	     28.06197401	     44.66653487	      0.00000000	      0.00000000
     20.32728571	     -3.09477943	     -6.13525551	      6.34060480	      1.07174969	      0.92120899	      0.46448755	     -1.06458714	      3.67600489	    -17.92194731	     10.75414786	     10.75414786	     16.71529640	      5.58759693	     -4.75242210	     28.27024663	     -8.49516484	     -0.86366475	     22.72582339	     22.72582339	      1.72970819	    -11.71374245	      4.24131039	     -8.70826253	      6.77489948	      3.26721693	     41.88937282	    -17.87449419	     -8.72174723	     75.71345800	     45.01540210	      0.00000000	      0.00000000	    -10.85371833	     -6.98323720	      4.67910141	     28.32667341	     44.66650819	      0.00000000	      0.00000000
     20.34035714	     -3.04579224	     -5.95246816	      6.20358073	      1.07299996	      0.92080630	      0.46177542	     -1.35992813	      3.25061380	    -17.64820646	     11.23903909	     11.23903909	     17.12386150	      5.33491180	     -4.54054973	     27.96206332	     -8.17762984	     -0.69837082	     23.37399773	     23.37399773	      2.29435977	    -12.22902497	      3.82624168	     -8.71986755	      6.50775613	      3.07183418	     41.08963870	    -17.75351191	     -8.77238243	     75.45873131	     45.02513411	      0.00000000	      0.00000000	    -10.54292012	     -7.17782130	      4.71129117	     28.44039700	     44.67396912	      0.00000000	      0.00000000
     20.35342857	     -3.12600250	     -5.81232627	      6.07698518	      1.07386112	      0.92043629	      0.45896058	     -1.11813651	      2.75700399	    -17.18977100	     12.50605302	     12.50605302	     18.35170229	      4.76649555	     -1.94547807	     27.84508639	     -7.83994818	     -0.40876640	     23.95697011	     23.95697011	      2.67733514	    -13.00302928	      3.24333956	     -8.61844963	      6.25517980	      3.14086283	     40.01919741	    -17.75491967	     -9.50165440	     75.30469621	     45.08045351	      0.00000000	      0.00000000	     -9.87420414	     -7.39836667	      5.23180668	     28.48516547	     44.68792314	      0.00000000	      0.00000000
     20.36650000	     -3.13828165	     -5.61696431	      5.96851330	      1.07462104	      0.92028981	      0.45593049	     -0.97362638	      2.18008246	    -16.94062255	     13.63266094	     13.63266094	     18.59567557	      4.27888045	     -2.01767102	     27.71481953	     -7.48717096	     -0.32118901	     24.62384477	     24.62384477	      3.34654234	    -13.40653255	      2.92515832	     -8.65184417	      5.97425014	      2.96912594	     39.05910646	    -17.78191566	     -9.45975491	     74.81903376	     45.09540797	      0.00000000	      0.00000000	     -9.23992242	     -7.56864603	      5.24981759	     28.64463501	     44.70861887	      0.00000000	      0.00000000
     20.37957143	     -3.02832866	     -5.55700519	      5.91779795	      1.07548739	      0.92066069	      0.45286211	     -1.20050156	      1.84597423	    -16.80142551	     14.22751986	     14.22751986	     18.54650458	      4.05943293	     -2.03975099	     27.36287009	     -7.26637084	     -0.15986323	     25.05544935	     25.05544935	      4.06498909	    -13.68536317	      2.59739487	     -8.80918001	      5.80981786	      2.54380313	     38.01787556	    -17.53940014	     -9.35078364	     74.44448653	     45.10014094	      0.00000000	      0.00000000	     -8.53328677	     -7.67631351	      5.24347345	     28.85116342	     44.72330508	      0.00000000	      0.00000000
     20.39264286	     -3.14951191	     -5.22850323	      5.73849477	      1.07576271	      0.92056110	      0.44963331	     -0.24713021	      0.90892434	    -16.26782893	     16.65184879	     16.65184879	     18.88348301	      2.88252691	     -2.36352150	     27.33898817	     -6.80617218	     -0.35863186	     25.66775590	     25.66775590	      4.65696993	    -13.99838937	      2.42954904	     -8.74917767	      5.44612731	      2.67955650	     36.80268494	    -17.83320777	     -9.37054861	     73.55637227	     45.12923230	      0.00000000	      0.00000000	     -7.63814721	     -7.93115100	      5.20783817	     28.97273100	     44.75592347	      0.00000000	      0.00000000
